# xmcd
#
# Track frame offsets: 
#        183
#        81773
#        98615
#        119993
#
# Disc length: 2175 seconds
#
# Revision: 22
# Processed by: cddbd v1.5.2PL0 Copyright (c) Steve Scherf et al.
# Submitted via: ExactAudioCopyFreeDBPlugin 1.0
#
DISCID=2d087d04
DTITLE=Rush / Hemispheres
DYEAR=1978
DGENRE=Progressive Rock
TTITLE0=Cygnus X-1, Book II: Hemispheres
TTITLE1=Circumstances
TTITLE2=The Trees
TTITLE3=La Villa Strangiato
EXTD=
EXTT0=
EXTT1=
EXTT2=
EXTT3=
PLAYORDER=
.
